<svg xmlns="http://www.w3.org/2000/svg" version="1.1" xmlns:xlink="http://www.w3.org/1999/xlink" xmlns:svgjs="http://svgjs.dev/svgjs" width="2000" height="1247" viewBox="0 0 2000 1247"><g transform="matrix(1,0,0,1,-1.2121212121212466,0.5048582995951847)"><svg viewBox="0 0 396 247" data-background-color="#f3f2e9" preserveAspectRatio="xMidYMid meet" height="1247" width="2000" xmlns="http://www.w3.org/2000/svg" xmlns:xlink="http://www.w3.org/1999/xlink"><g id="tight-bounds" transform="matrix(1,0,0,1,0.2400000000000091,-0.09999999999999432)"><svg viewBox="0 0 395.52 247.2" height="247.2" width="395.52"><g><svg></svg></g><g><svg viewBox="0 0 395.52 247.2" height="247.2" width="395.52"><g transform="matrix(1,0,0,1,75.54432000000001,49.70100506227401)"><svg viewBox="0 0 244.43135999999996 147.79798987545198" height="147.79798987545198" width="244.43135999999996"><g><svg viewBox="0 0 244.43135999999996 147.79798987545198" height="147.79798987545198" width="244.43135999999996"><g><svg viewBox="0 0 244.43135999999996 147.79798987545198" height="147.79798987545198" width="244.43135999999996"><g><svg viewBox="0 0 244.43135999999996 147.79798987545198" height="147.79798987545198" width="244.43135999999996"><g id="textblocktransform"><svg viewBox="0 0 244.43135999999996 147.79798987545198" height="147.79798987545198" width="244.43135999999996" id="textblock"><g><svg viewBox="0 0 244.43135999999996 147.79798987545198" height="147.79798987545198" width="244.43135999999996"><g transform="matrix(1,0,0,1,0,0)"><svg width="244.43135999999996" viewBox="5.03 -36.25 60.760000000000005 36.74" height="147.79798987545198" data-palette-color="#285181"><path d="M11.08-31.47L11.08 0 5.03 0 5.03-35.77 15.82-35.77Q18.9-35.77 21.42-35.02 23.95-34.28 25.77-32.85 27.59-31.42 28.59-29.35 29.59-27.27 29.59-24.58L29.59-24.58Q29.59-21.7 28.49-19.43 27.39-17.16 25.59-15.59 23.78-14.01 21.46-13.17 19.14-12.33 16.72-12.33L16.72-12.33Q16.41-12.33 16.05-12.35 15.7-12.38 15.21-12.45L15.21-12.45 15.58-16.5Q15.94-16.46 16.26-16.44 16.58-16.43 16.85-16.43L16.85-16.43Q18.31-16.43 19.53-16.92 20.75-17.41 21.64-18.36 22.53-19.31 23.03-20.69 23.54-22.07 23.54-23.88L23.54-23.88Q23.54-25.88 22.95-27.32 22.36-28.76 21.25-29.69 20.14-30.62 18.57-31.04 16.99-31.47 15.01-31.47L15.01-31.47 11.08-31.47ZM65.79-17.09L65.79-1.88Q62.38-0.56 59.3-0.04 56.22 0.49 53.59 0.49L53.59 0.49Q49.29 0.49 45.91-0.74 42.53-1.98 40.16-4.24 37.79-6.49 36.55-9.69 35.3-12.89 35.3-16.82L35.3-16.82Q35.3-19.9 36.06-22.53 36.81-25.17 38.16-27.33 39.5-29.49 41.38-31.15 43.26-32.81 45.51-33.95 47.75-35.08 50.29-35.67 52.83-36.25 55.52-36.25L55.52-36.25Q56.39-36.25 57.47-36.18 58.54-36.11 59.75-35.95 60.96-35.79 62.25-35.53 63.55-35.28 64.87-34.89L64.87-34.89 63.91-30.18 63.43-29.93Q60.86-31.13 58.62-31.54 56.37-31.96 54.73-31.96L54.73-31.96Q51.76-31.96 49.34-30.9 46.92-29.83 45.19-27.97 43.45-26.1 42.51-23.55 41.57-21 41.57-17.99L41.57-17.99Q41.57-15.14 42.44-12.57 43.31-10.01 44.97-8.06 46.63-6.1 49.02-4.96 51.41-3.81 54.49-3.81L54.49-3.81Q55.78-3.81 57.33-4.03 58.88-4.25 60.4-4.74L60.4-4.74 60.4-17.09 65.79-17.09Z" opacity="1" transform="matrix(1,0,0,1,0,0)" fill="#ffffff" class="wordmark-text-0" data-fill-palette-color="primary" id="text-0"></path></svg></g></svg></g></svg></g></svg></g></svg></g></svg></g></svg></g><g><path d="M245.816 0c68.262 0 123.6 55.338 123.6 123.6 0 68.262-55.338 123.6-123.6 123.6-32.076 0-61.298-12.219-83.267-32.255h10.252c20.009 16.014 45.393 25.591 73.015 25.591 64.582 0 116.936-52.354 116.935-116.936 0-64.582-52.354-116.936-116.935-116.936-27.621 0-53.006 9.577-73.015 25.591h-10.252c21.968-20.037 51.19-32.255 83.267-32.255z" fill="#ffffff" stroke="transparent" data-fill-palette-color="tertiary"></path></g></svg></g><defs></defs></svg><rect width="395.52" height="247.2" fill="none" stroke="none" visibility="hidden"></rect></g></svg></g></svg>